<svg xmlns="http://www.w3.org/2000/svg" viewBox="0 0 28.656 5.8074"><defs><style>.a{fill:#d0d0d0;}</style></defs><path class="a" d="M9.25,1.31H7.9613V1.467H9.113v.247H7.9613v.1636h1.392v.2771H6.2221V1.8776H7.6175V1.714H6.4724V1.467H7.6175V1.31H6.3322V1.03H7.6175V.8361h.3438V1.03H9.25Zm-.2771.9848V3.6535c0,.2137-.0734.3238-.3.3238H8.1415l-.0768-.3238h.4874c.0568,0,.0768-.0267.0768-.0634V3.4132H6.93v.5641H6.5926V2.2949ZM6.93,2.7389H8.6289v-.187H6.93Zm0,.4272H8.6289V2.9792H6.93Z"/><polygon class="a" points="10.538 1.407 10.538 3.38 11.446 3.38 11.446 0.833 11.807 0.833 11.807 3.38 12.722 3.38 12.722 1.407 13.082 1.407 13.082 3.974 12.722 3.974 12.722 3.727 10.538 3.727 10.538 3.974 10.178 3.974 10.178 1.407 10.538 1.407"/><path class="a" d="M16.5273,1.9377v.277a3.6451,3.6451,0,0,1-.8513.5342v.0267h1.4021v.3271H15.676V3.7a.2828.2828,0,0,1-.2737.277h-.6542l-.0635-.3538h.5374c.0935,0,.0935-.0467.0935-.1068v-.414H13.9169V2.7756h1.3986v-.26h.1469a1.5312,1.5312,0,0,0,.4941-.2637H14.4709V1.9377ZM14.4409,1.37a2.9487,2.9487,0,0,0-.2-.4106l.3238-.12a2.0021,2.0021,0,0,1,.25.5008l-.0768.03h.6677A2.6327,2.6327,0,0,0,15.1786.94l.3306-.1269a2.716,2.716,0,0,1,.2537.5208l-.11.0367h.5408a3.77,3.77,0,0,0,.22-.5475l.3839.1135a3.3145,3.3145,0,0,1-.22.434h.4239v.7645h-.3371V1.6873h-2.32v.4474H14.007V1.37Z"/><path class="a" d="M17.8493.9162h.938V1.2a5.4381,5.4381,0,0,1-.2437.7979,1.3815,1.3815,0,0,1,.26.8212.4216.4216,0,0,1-.4306.4907H18.25l-.0333-.33H18.37c.0969,0,.1169-.1669.1169-.25a1.3126,1.3126,0,0,0-.2637-.7144A3.46,3.46,0,0,0,18.47,1.22h-.3V3.9773h-.32Zm3.0678,1.7425h-.661V3.53c0,.0434.0067.1135.0868.1135H20.49a.08.08,0,0,0,.09-.0634,3.2578,3.2578,0,0,0,.0267-.3873l.3271.0668c-.03.6643-.0734.6877-.3738.6877h-.3038c-.3138,0-.3238-.0434-.3238-.3772V2.6587h-.2938a1.2921,1.2921,0,0,1-.9113,1.3186L18.57,3.67a.9462.9462,0,0,0,.7277-1.0115h-.4472V2.3416h2.0663Zm-1.7659-.8011h-.3V1.11h.8211V.8261h.3338V1.11h.8313v.7478h-.3038v.15h-1.382Zm1.3686-.434H19.1645v.2838H20.52Z"/><path class="a" d="M21.5815,3.5968A2.2045,2.2045,0,0,0,22.97,1.9811h-1.322V1.6273h1.3553V.8294h.3706v.7979h1.3853v.3538H23.4375A1.9271,1.9271,0,0,0,24.84,3.5968l-.237.3672a2.24,2.24,0,0,1-1.392-1.4922A2.5023,2.5023,0,0,1,21.8152,3.944Z"/><path class="a" d="M28.0944,1.9377v.277a3.6451,3.6451,0,0,1-.8513.5342v.0267h1.4021v.3271H27.2431V3.7a.2828.2828,0,0,1-.2737.277h-.6542l-.0635-.3538h.5374c.0935,0,.0935-.0467.0935-.1068v-.414H25.484V2.7756h1.3986v-.26H27.03a1.5312,1.5312,0,0,0,.4941-.2637H26.038V1.9377ZM26.008,1.37a2.9487,2.9487,0,0,0-.2-.4106l.3239-.12a2.0054,2.0054,0,0,1,.25.5008l-.0768.03h.6677A2.6327,2.6327,0,0,0,26.7457.94l.3306-.1269a2.716,2.716,0,0,1,.2537.5208l-.11.0367h.5408a3.7834,3.7834,0,0,0,.22-.5475l.3839.1135a3.3145,3.3145,0,0,1-.22.434h.4239v.7645h-.3371V1.6873h-2.32v.4474h-.3371V1.37Z"/><path class="a" d="M2.3453.0654A2.5329,2.5329,0,0,1,.1039.8383L.0111.82.0033.9154A5.8231,5.8231,0,0,0,.7094,3.8969,5.1269,5.1269,0,0,0,2.3715,5.78l.0431.0274.0432-.03A6.0171,6.0171,0,0,0,4.7854.9154V.8213l-.09.017A2.5251,2.5251,0,0,1,2.463.0654L2.4041,0,2.3453.0654m.0588.1713a2.7213,2.7213,0,0,0,2.2231.7846v.1164a5.6977,5.6977,0,0,1-.7008,2.6651A5.3629,5.3629,0,0,1,2.4107,5.6113,5.084,5.084,0,0,1,.8546,3.82,5.7089,5.7089,0,0,1,.1628,1.139V1.0083A2.7266,2.7266,0,0,0,2.4041.2367"/><path class="a" d="M2.9037,3.736a.0783.0783,0,0,0,.0771-.0781.0771.0771,0,1,0-.1542,0,.0783.0783,0,0,0,.0771.0781"/><path class="a" d="M3.5589,4.216a.0588.0588,0,0,0,.0575-.06v0A.0588.0588,0,1,0,3.5,4.1364l0,.0019a.0577.0577,0,0,0,0,.0176.06.06,0,0,0,.0589.06"/><path class="a" d="M3.4935,3.8446A.13.13,0,0,0,3.48,3.893v.2552L3.3141,4.27a.0392.0392,0,0,1-.0392-.0118l-.1635-.0732c-.0118,0-.0132-.0092,0-.0249v-.38a.2642.2642,0,0,0-.034-.0693A.0825.0825,0,0,1,3.1,3.5985a1.2423,1.2423,0,0,1,.1216-.0849c.0157-.0133.0118-.0327.0144-.0471s.0236-.0379.034,0a.1127.1127,0,0,1-.0261.123.1766.1766,0,0,1-.0678.0551c-.0366.0249-.0379.055-.0157.0667l.0235.0235c.068.0536.0589.0916.06.1634v.1753c0,.0471,0,.0562.03.0795.0758.0589.081.0431.081-.0209v-.277a.03.03,0,0,0-.0386-.0178l-.0124.0086c-.0169,0-.04,0-.0156-.0327l.0861-.0719h.0288l.0811.0641c.0117.01.0236.0235.0092.0392"/><path class="a" d="M2.1218,3.5661l-.2407-.1085H1.8629l-.0838.0771v.02l.0523.0158a.04.04,0,0,1,.0222.0379V3.83H1.6444V3.5229l-.0183-.0183H1.6156l-.0182.0183v.5754l-.0249-.01c-.0223,0-.0444-.0184-.0732-.021V3.5988c-.0511-.22-.3048-.1478-.3753-.0458-.0249.0339-.0067.0314.0157.0209a.1306.1306,0,0,1,.1846.0094.1287.1287,0,0,1,.0285.0508v.4577a.2145.2145,0,0,0,.06.3923c.0694,0,.0628-.0171.0145-.0275-.174-.0444-.1308-.3792.15-.1988a.5779.5779,0,0,0,.0537.034.0769.0769,0,0,0,.06.0158l.1661-.1138c.02,0,.0653.0562.0981.0758a.0792.0792,0,0,0,.0522,0,.82.82,0,0,0,.1308-.0928c.03-.0208.01-.0457-.0169-.0326-.0641.0406-.08,0-.0851-.0654V3.6551c0-.0079,0-.0158.0157-.0224h.03l.0445-.0548V3.5621m-.2616.5766c-.068.081-.1085.0574-.1713,0-.0144-.0118-.0235-.0263-.0379-.0393V3.8642h.2092Z"/><path class="a" d="M2.7415,4.1559c-.0523.0183-.0719.0078-.0745-.0314V3.8983c0-.0341.0249-.0367,0-.0589l-.106-.0942h-.03l-.0144.0092-.1425.0915-.0133-.0143a.4513.4513,0,0,0-.0667-.0785H2.2553l-.0707.0694c-.0265.02-.0183.03,0,.0339s.0628,0,.0615.0405v.23a.1468.1468,0,0,1-.0105.0484c0,.0132.0066.0169.0105.0235l.0562.0274.0628.0419.0484.0105.0471-.0366c.0444-.0288.0483-.0459.0221-.05H2.4305a.0653.0653,0,0,1-.0485-.0641V3.893L2.47,3.8368c.0471-.0119.0575.0183.0706.0615V4.114a.1385.1385,0,0,1-.0091.064l.0066.02c.0223.0171.0667.034.0942.0563s.034.0091.0444,0a.9679.9679,0,0,0,.0668-.0706c.0183-.0222.0143-.0262,0-.0262"/><polygon class="a" points="2.976 4.156 2.976 3.863 3.004 3.854 3.004 3.833 2.913 3.76 2.892 3.76 2.804 3.833 2.804 3.854 2.834 3.868 2.834 4.149 2.804 4.164 2.804 4.185 2.892 4.258 2.913 4.258 3.004 4.185 3.004 4.164 2.976 4.156"/><path class="a" d="M.9513,2.6363.97,2.3539c-.0183-.0118-.0758,0-.1634.0419s-.1386.0365-.153-.0118,0-.0367.0091-.0575a.0342.0342,0,0,1-.0444,0,.0957.0957,0,0,1-.051-.09l-.3453.12A5.9117,5.9117,0,0,0,.49,3.2179L.648,3.1631c-.1752-.2145.0078-.4891.3033-.5349"/><path class="a" d="M2.69,2.367a.7327.7327,0,0,1,.2616-.5624L2.387,1.6072l-.9727.34.4108.5231a.1006.1006,0,0,1,.1713.1032l-.0732.153.464-.162.3857.1308a.6755.6755,0,0,1-.0876-.3309"/><path class="a" d="M3.9015,2.1342l-.16.0706a.4441.4441,0,0,1,.23.4354.468.468,0,0,1-.2485.3923l.5637.1946a5.8789,5.8789,0,0,0,.276-.8591Z"/><path class="a" d="M1.09,1.6883,1.08,1.8308c-.234.0811-.3635.1465-.4473.3923-.0091.0418.0118.0575.0249.0366a.613.613,0,0,1,.4093-.2432v.0588a.5232.5232,0,0,0-.3375.2616c-.0209.0366,0,.06.0235.0392a.5239.5239,0,0,1,.2969-.1007l-.0327.42c-.3048,0-.5741.374-.1193.5965.0575.0326.0876-.0067.0157-.038C.539,3.0522.8336,2.63,1.2294,2.992c.0133.01.0157.0133.025,0l.1307-.251c.0092-.0432-.0432-.0745-.0667-.0274l-.0392.0679a.5748.5748,0,0,0-.1855-.0771L1.1014,2.61l.4212-.153.2615.3217c.0208.021.0365.02.0484,0l.11-.2249c.0144-.034-.0484-.0654-.0667-.0314l-.03.0575-.7309-.9012c-.0133-.0144-.0236-.01-.0249.0092m.2955.5976-.2615.0981L1.1525,2Z"/><path class="a" d="M3.7042,1.8177l-.4252.1438-.1452.0458H3.1273a.0248.0248,0,0,0-.0133.0313v.0079a.0247.0247,0,0,0,.03.0183h0l.1282-.0379a4.1575,4.1575,0,0,1-.13.4183.3449.3449,0,0,1-.1308.2027c-.0352.0248-.0222.038.02.0248a.48.48,0,0,0,.2733-.2236c.0157-.0353.0288-.0772.0484-.1307l.09-.0406-.2039.6539v.0132a.407.407,0,0,1-.2734-.2824.64.64,0,0,1-.0209-.3348,1.0258,1.0258,0,0,1,.1543-.3753.5919.5919,0,0,1,.2121-.1855c.0326,0,.0287-.0315-.0144-.0249A.62.62,0,0,0,2.76,2.37a.5728.5728,0,0,0,.11.3414.6787.6787,0,0,0,.5478.3164.4344.4344,0,0,0,.49-.3649A.4028.4028,0,0,0,3.64,2.2415a.378.378,0,0,0-.081-.0157l.442-.1987a.0289.0289,0,0,0,.0169-.0354H3.9933a.2078.2078,0,0,1-.2379-.0861.1468.1468,0,0,1-.03-.0667H3.7108M3.296,2.9763v-.01l.068-.22a.1843.1843,0,0,1,.2473.0826l0,0a.1822.1822,0,0,1,.0142.039.4353.4353,0,0,1-.3308.1085m.3924-.2079c-.0092.0235-.0171.0262-.0354.0483A.2209.2209,0,0,0,3.39,2.6756l.0431-.14a.2616.2616,0,0,0,.2942.06.3022.3022,0,0,1-.0417.15m.0287-.234a.1883.1883,0,0,1-.26-.06l0,0-.0019-.0031.0627-.2027a.2386.2386,0,0,1,.1127.0627A.3409.3409,0,0,1,3.72,2.512m-.1308-.5911a.3094.3094,0,0,0,.2459.1165l-.2824.1307L3.5814,2.06c.0144-.03,0-.0417-.0265-.04h-.01l-.021.017-.051.1648-.09.0418c.02-.0575.0314-.0823.0889-.2811Z"/><path class="a" d="M6.6543,4.5717h.1546l.3669,1.0108h-.15L6.92,5.28H6.5237l-.11.3027h-.14Zm.2271.5966-.1556-.4466-.1617.4466Z"/><path class="a" d="M8.1624,4.7163a.5569.5569,0,0,1,.1.3433.6.6,0,0,1-.1148.3763.5106.5106,0,0,1-.7514.0221.5823.5823,0,0,1-.119-.3757.5973.5973,0,0,1,.1018-.3509.4413.4413,0,0,1,.3867-.1872.4626.4626,0,0,1,.3963.1721m-.1207.6442a.5526.5526,0,0,0,.0808-.2985.4261.4261,0,0,0-.0932-.2871.3179.3179,0,0,0-.2549-.1088.3317.3317,0,0,0-.256.1077.4542.4542,0,0,0-.0991.3178.4645.4645,0,0,0,.085.2833A.3194.3194,0,0,0,7.78,5.49a.285.285,0,0,0,.2618-.13"/><polygon class="a" points="8.362 4.572 8.522 4.572 8.812 5.057 9.103 4.572 9.264 4.572 8.881 5.175 8.881 5.583 8.744 5.583 8.744 5.175 8.362 4.572"/><path class="a" d="M9.5848,4.5717h.1545l.3669,1.0108h-.15L9.8507,5.28H9.4541l-.11.3027h-.14Zm.227.5966-.1556-.4466-.1617.4466Z"/><path class="a" d="M11.8811,4.5717h.1546l.3668,1.0108h-.15L12.147,5.28h-.3965l-.11.3027h-.14Zm.2271.5966-.1556-.4466-.1618.4466Z"/><path class="a" d="M10.3235,4.5718H10.52l.2907.8545.2885-.8545h.1948V5.5825h-.1307V4.9859c0-.0206,0-.0548.0014-.1024s.0013-.0989.0013-.1535l-.2885.8525h-.1357L10.45,4.73v.031q0,.0372.0021.1132c.0015.0507.0021.0879.0021.1117v.5966h-.1307Z"/><path class="a" d="M13.7705,4.6007a.3587.3587,0,0,1,.1818.2772h-.1356a.247.247,0,0,0-.1-.1613.34.34,0,0,0-.192-.05.2982.2982,0,0,0-.2315.1052.4579.4579,0,0,0-.094.3138.5091.5091,0,0,0,.0776.2934.2841.2841,0,0,0,.2528.1131.3189.3189,0,0,0,.2222-.0794.3368.3368,0,0,0,.09-.257h-.3166V5.0417h.444v.5408h-.0882l-.0331-.13a.5126.5126,0,0,1-.1211.1059.4478.4478,0,0,1-.2254.051.4349.4349,0,0,1-.3039-.1164.5571.5571,0,0,1-.1387-.4.5792.5792,0,0,1,.1356-.4039.4282.4282,0,0,1,.3336-.1431.5061.5061,0,0,1,.2428.0551"/><path class="a" d="M14.57,4.5717h.1546l.3669,1.0108h-.15L14.8355,5.28H14.439l-.11.3027h-.14Zm.2271.5966-.1557-.4466-.1617.4466Z"/><polygon class="a" points="15.312 4.572 15.445 4.572 15.445 5.067 15.951 4.572 16.142 4.572 15.711 4.98 16.151 5.583 15.972 5.583 15.61 5.075 15.445 5.23 15.445 5.583 15.312 5.583 15.312 4.572"/><path class="a" d="M16.4967,4.5718v.6247a.365.365,0,0,0,.0417.1831.2189.2189,0,0,0,.208.11.2446.2446,0,0,0,.2385-.119.3743.3743,0,0,0,.0341-.1741V4.5718h.1384v.5676a.6542.6542,0,0,1-.0506.2869.4243.4243,0,0,1-.698,0,.6561.6561,0,0,1-.05-.2869V4.5718Z"/><rect class="a" x="17.5114" y="4.5718" width="0.1383" height="1.0107"/><polygon class="a" points="17.969 4.572 18.13 4.572 18.635 5.388 18.635 4.572 18.765 4.572 18.765 5.583 18.611 5.583 18.1 4.767 18.1 5.583 17.969 5.583 17.969 4.572"/><path class="a" d="M19.6552,4.5718v.6247a.365.365,0,0,0,.0418.1831.219.219,0,0,0,.2079.11.2448.2448,0,0,0,.2386-.119.3757.3757,0,0,0,.034-.1741V4.5718h.1384v.5676a.6545.6545,0,0,1-.05.2869.4242.4242,0,0,1-.6979,0,.6542.6542,0,0,1-.0506-.2869V4.5718Z"/><polygon class="a" points="20.606 4.572 20.767 4.572 21.271 5.388 21.271 4.572 21.402 4.572 21.402 5.583 21.248 5.583 20.736 4.767 20.736 5.583 20.606 5.583 20.606 4.572"/><rect class="a" x="21.7182" y="4.5718" width="0.1382" height="1.0107"/><polygon class="a" points="22.256 4.572 22.546 5.433 22.833 4.572 22.987 4.572 22.618 5.583 22.473 5.583 22.105 4.572 22.256 4.572"/><polygon class="a" points="23.226 4.572 23.96 4.572 23.96 4.696 23.36 4.696 23.36 5.002 23.914 5.002 23.914 5.119 23.36 5.119 23.36 5.462 23.97 5.462 23.97 5.583 23.226 5.583 23.226 4.572"/><path class="a" d="M24.2667,4.5717h.4594a.45.45,0,0,1,.1871.0338.2392.2392,0,0,1,.14.2387.268.268,0,0,1-.0376.1487.2718.2718,0,0,1-.1048.0928A.2071.2071,0,0,1,25,5.149a.2272.2272,0,0,1,.0334.1273l.0048.1356a.43.43,0,0,0,.01.086.0847.0847,0,0,0,.044.0619v.0227h-.1678a.128.128,0,0,1-.011-.0337.6288.6288,0,0,1-.0069-.08L24.8976,5.3a.142.142,0,0,0-.0715-.1328.2879.2879,0,0,0-.12-.0186h-.3029v.4335h-.1369Zm.4447.4794a.2525.2525,0,0,0,.1482-.0385.1591.1591,0,0,0,.0546-.139.15.15,0,0,0-.0763-.1472.2431.2431,0,0,0-.109-.0206h-.3253v.3453Z"/><path class="a" d="M25.4212,5.2564a.2823.2823,0,0,0,.0392.14.2548.2548,0,0,0,.2313.1005.3951.3951,0,0,0,.1351-.022.1551.1551,0,0,0,.1181-.1528.1339.1339,0,0,0-.05-.1176.4955.4955,0,0,0-.1588-.06l-.1325-.031a.5841.5841,0,0,1-.1839-.0667.2131.2131,0,0,1-.0933-.1892.2946.2946,0,0,1,.0917-.2236.3612.3612,0,0,1,.26-.0874.443.443,0,0,1,.2628.0767.28.28,0,0,1,.1081.2453H25.92a.2617.2617,0,0,0-.0422-.1245.24.24,0,0,0-.2039-.0791.2285.2285,0,0,0-.1668.0509.1624.1624,0,0,0-.0509.1183.1162.1162,0,0,0,.06.1087.8552.8552,0,0,0,.178.055l.1374.0324a.4131.4131,0,0,1,.1533.064.2426.2426,0,0,1,.0933.2057.2588.2588,0,0,1-.119.24.5241.5241,0,0,1-.2769.0722.4066.4066,0,0,1-.2878-.0964.3289.3289,0,0,1-.102-.2593Z"/><rect class="a" x="26.3998" y="4.5718" width="0.1384" height="1.0107"/><polygon class="a" points="27.626 4.572 27.626 4.692 27.285 4.692 27.285 5.583 27.147 5.583 27.147 4.692 26.806 4.692 26.806 4.572 27.626 4.572"/><polygon class="a" points="27.754 4.572 27.914 4.572 28.204 5.057 28.495 4.572 28.656 4.572 28.273 5.175 28.273 5.583 28.136 5.583 28.136 5.175 27.754 4.572"/></svg>