<svg xmlns="http://www.w3.org/2000/svg" viewBox="0 0 24.846 5.9116"><defs><style>.a{fill:#fff;}.b{fill:#00a384;}</style></defs><rect class="a" width="24.846" height="5.9116"/><path class="b" d="M8.3506,1.6043H7.2847v.13h.9527v.2044H7.2847v.1353H8.4362v.2292H5.846V2.0737H7V1.9384H6.0532V1.734H7v-.13H5.9372v-.232H7v-.16h.2844v.16H8.3506Zm-.2292.8146V3.5427c0,.1767-.0608.2679-.2486.2679h-.439L7.37,3.5427h.4031c.047,0,.0636-.0221.0636-.0525V3.3439H6.4315v.4667H6.1526V2.4189Zm-1.69.3672H7.837V2.6315H6.4315Zm0,.3534H7.837V2.9849H6.4315Z"/><polygon class="b" points="9.417 1.684 9.417 3.316 10.168 3.316 10.168 1.209 10.466 1.209 10.466 3.316 11.222 3.316 11.222 1.684 11.521 1.684 11.521 3.808 11.222 3.808 11.222 3.603 9.417 3.603 9.417 3.808 9.118 3.808 9.118 1.684 9.417 1.684"/><path class="b" d="M14.37,2.1234v.2292a3.0165,3.0165,0,0,1-.7042.4418v.0221h1.16v.2706h-1.16v.4943a.234.234,0,0,1-.2264.2292h-.5412l-.0525-.2927h.4446c.0773,0,.0773-.0387.0773-.0884V3.0871H12.2111V2.8165H13.368V2.6011H13.49a1.2663,1.2663,0,0,0,.4087-.2181H12.6694v-.26ZM12.6446,1.654a2.4481,2.4481,0,0,0-.1657-.34l.2679-.0994a1.6653,1.6653,0,0,1,.2071.4142L12.89,1.654h.5523a2.1712,2.1712,0,0,0-.1878-.3562l.2734-.105a2.2382,2.2382,0,0,1,.21.4308l-.0911.03h.4473a3.13,3.13,0,0,0,.1822-.4529l.3176.0939a2.7282,2.7282,0,0,1-.1823.359h.3507v.6323h-.2789v-.37H12.5645v.37h-.2789V1.654Z"/><path class="b" d="M15.4639,1.2784H16.24v.2347a4.4932,4.4932,0,0,1-.2015.66,1.1428,1.1428,0,0,1,.2153.6793.3487.3487,0,0,1-.3561.4059h-.1023l-.0275-.2734h.1269c.08,0,.0967-.1381.0967-.2071a1.0863,1.0863,0,0,0-.2181-.5909,2.8591,2.8591,0,0,0,.2043-.6572H15.729V3.8106h-.2651ZM18.0016,2.72h-.5468v.7207c0,.0359.0055.0939.0718.0939h.1215a.0657.0657,0,0,0,.0746-.0524,2.7283,2.7283,0,0,0,.0221-.32l.27.0553c-.0248.55-.0607.5688-.3092.5688h-.2513c-.2595,0-.2678-.0359-.2678-.312V2.72h-.243A1.0691,1.0691,0,0,1,16.19,3.8106l-.13-.2541a.7827.7827,0,0,0,.6019-.8367h-.37V2.4575h1.7093Zm-1.4607-.6627h-.2486V1.4386h.6793V1.2039h.2761v.2347h.6876v.6185H17.684v.1243H16.5409Zm1.1321-.3589H16.5519v.2347H17.673Z"/><path class="b" d="M18.5511,3.4958A1.8237,1.8237,0,0,0,19.7,2.1593H18.6064V1.8666h1.121v-.66h.3066v.66H21.18v.2927H20.0864a1.5941,1.5941,0,0,0,1.16,1.3365L21.05,3.8a1.8521,1.8521,0,0,1-1.1514-1.2343A2.07,2.07,0,0,1,18.7444,3.783Z"/><path class="b" d="M23.9386,2.1234v.2292a3.0165,3.0165,0,0,1-.7042.4418v.0221h1.16v.2706h-1.16v.4943a.234.234,0,0,1-.2264.2292h-.5412l-.0525-.2927h.4446c.0773,0,.0773-.0387.0773-.0884V3.0871H21.7793V2.8165h1.1569V2.6011h.1215a1.2683,1.2683,0,0,0,.4087-.2181H22.2375v-.26ZM22.2127,1.654a2.45,2.45,0,0,0-.1656-.34l.2678-.0994a1.6585,1.6585,0,0,1,.2071.4142l-.0635.0249h.5523a2.1789,2.1789,0,0,0-.1878-.3562l.2734-.105a2.2441,2.2441,0,0,1,.21.4308l-.0911.03h.4473a3.1234,3.1234,0,0,0,.1823-.4529l.3175.0939a2.74,2.74,0,0,1-.1822.359h.3506v.6323h-.2788v-.37H22.1327v.37h-.2789V1.654Z"/><path class="b" d="M2.6392.5747a2.0952,2.0952,0,0,1-1.854.6393L.7085,1.1988l-.0065.079A4.8155,4.8155,0,0,0,1.2861,3.744,4.2407,4.2407,0,0,0,2.6609,5.3017l.0356.0227L2.7323,5.3A4.9777,4.9777,0,0,0,4.6577,1.2778V1.2L4.583,1.214A2.0889,2.0889,0,0,1,2.7366.5747L2.6879.5206,2.6392.5747m.0487.1417a2.2512,2.2512,0,0,0,1.8389.649v.0963a4.7124,4.7124,0,0,1-.58,2.2045,4.436,4.436,0,0,1-1.2537,1.496A4.2047,4.2047,0,0,1,1.4061,3.68,4.7231,4.7231,0,0,1,.8339,1.4627V1.3546A2.2553,2.2553,0,0,0,2.6879.7164"/><path class="b" d="M3.1011,3.611a.0649.0649,0,0,0,.0638-.0647.0638.0638,0,0,0-.1276,0,.0649.0649,0,0,0,.0638.0647"/><path class="b" d="M3.6431,4.008a.0487.0487,0,0,0,.0476-.05h0a.0487.0487,0,0,0-.096-.0162l0,.0016a.0447.0447,0,0,0,0,.0146.05.05,0,0,0,.0487.05"/><path class="b" d="M3.589,3.7008a.1074.1074,0,0,0-.0109.04v.2111l-.1375.1007a.0323.0323,0,0,1-.0324-.01L3.273,3.9822c-.01,0-.011-.0075,0-.0205V3.6478a.2153.2153,0,0,0-.0282-.0573.0683.0683,0,0,1,.0184-.0933,1.0113,1.0113,0,0,1,.1006-.07c.013-.011.01-.0271.0119-.039s.0195-.0314.0281,0a.0933.0933,0,0,1-.0216.1017.1453.1453,0,0,1-.056.0456c-.03.0206-.0314.0455-.013.0552l.0194.0194c.0563.0444.0487.0758.05.1352V3.89c0,.039,0,.0465.0249.0658.0627.0487.067.0356.067-.0173V3.7094a.025.025,0,0,0-.032-.0147l-.01.0072c-.014,0-.0335,0-.0129-.0271l.0713-.0595h.0237l.0671.053c.01.0087.0195.02.0076.0325"/><path class="b" d="M2.4543,3.47l-.199-.09H2.24l-.0693.0638v.0164l.0432.0131a.0332.0332,0,0,1,.0184.0313v.1836H2.06V3.4346L2.0443,3.42H2.0357l-.0151.0151v.476L2,3.902c-.0184,0-.0368-.0152-.0606-.0173V3.4974c-.0422-.1817-.2521-.1222-.31-.0379-.0206.0281-.0055.026.013.0174a.108.108,0,0,1,.1527.0077.106.106,0,0,1,.0235.042v.3786a.1774.1774,0,0,0,.05.3245c.0573,0,.0519-.0141.0119-.0227-.1439-.0367-.1081-.3136.1244-.1644a.4672.4672,0,0,0,.0444.0281.0631.0631,0,0,0,.05.013L2.2358,3.99c.0165,0,.054.0465.0811.0627a.0656.0656,0,0,0,.0433,0,.687.687,0,0,0,.1081-.0767c.0249-.0172.0087-.0378-.014-.027-.053.0336-.0658,0-.07-.0541v-.35c0-.0066,0-.013.013-.0185h.0248L2.4586,3.48v-.013m-.2163.4769c-.0562.0671-.09.0475-.1417,0-.012-.01-.0195-.0217-.0314-.0324V3.717h.1731Z"/><path class="b" d="M2.967,3.9583c-.0433.0151-.0595.0064-.0616-.026V3.7452c0-.0282.02-.03,0-.0488l-.0877-.0778H2.7931l-.0119.0075-.1179.0758L2.6523,3.69a.3756.3756,0,0,0-.0551-.0649H2.5648l-.0585.0573c-.0219.0165-.0151.0249,0,.0281s.0519,0,.0509.0335v.19a.1226.1226,0,0,1-.0087.04c0,.0109.0055.014.0087.02l.0465.0226.0519.0347.04.0086.0389-.03c.0367-.0238.04-.0379.0183-.0411H2.71a.0541.0541,0,0,1-.04-.0531V3.7408l.0725-.0464c.039-.01.0476.015.0585.0508v.1784a.1155.1155,0,0,1-.0076.053l.0055.0164c.0184.0141.0551.0281.0779.0466s.0281.0075.0368,0a.7993.7993,0,0,0,.0551-.0584c.0152-.0184.0119-.0217,0-.0217"/><polygon class="b" points="3.161 3.958 3.161 3.716 3.184 3.708 3.184 3.691 3.109 3.63 3.091 3.63 3.019 3.691 3.019 3.708 3.044 3.72 3.044 3.953 3.019 3.965 3.019 3.982 3.091 4.043 3.109 4.043 3.184 3.982 3.184 3.965 3.161 3.958"/><path class="b" d="M1.4862,2.7013l.0151-.2337c-.0151-.01-.0627,0-.1352.0347s-.1146.03-.1265-.01,0-.03.0075-.0475a.0283.0283,0,0,1-.0367,0A.0788.0788,0,0,1,1.1682,2.37l-.2856.1a4.89,4.89,0,0,0,.2217.7126l.1309-.0454c-.1449-.1774.0065-.4046.251-.4424"/><path class="b" d="M2.9247,2.4785a.6058.6058,0,0,1,.2163-.4652L2.6737,1.85l-.8046.2813.34.4326a.0833.0833,0,0,1,.1417.0855L2.29,2.7759l.3838-.134L2.993,2.75a.5589.5589,0,0,1-.0725-.2737"/><path class="b" d="M3.9265,2.286l-.132.0583a.3677.3677,0,0,1,.19.36.3873.3873,0,0,1-.2055.3245l.4663.161a4.8772,4.8772,0,0,0,.2283-.7107Z"/><path class="b" d="M1.6008,1.9171l-.0086.1179c-.1936.067-.3007.1212-.37.3245-.0075.0346.01.0476.0206.03a.507.507,0,0,1,.3386-.2011v.0486a.4331.4331,0,0,0-.2792.2164c-.0173.03,0,.05.0194.0324a.4337.4337,0,0,1,.2456-.0833L1.54,2.75c-.2521,0-.4748.3093-.0986.4933.0476.027.0725-.0055.013-.0314-.3094-.1666-.0658-.516.2617-.2164.011.0087.013.011.0206,0l.1082-.2077c.0076-.0356-.0358-.0616-.0552-.0226l-.0325.0562a.4755.4755,0,0,0-.1534-.0638L1.61,2.68l.3484-.1266.2163.2662c.0173.0173.03.0164.04,0l.0908-.1861c.0119-.0281-.04-.0541-.0552-.0259l-.0249.0475-.6046-.7455c-.011-.0119-.02-.0086-.0206.0077m.2445.4943-.2164.0811.0239-.3179Z"/><path class="b" d="M3.7633,2.0242l-.3517.1189-.12.0378H3.2861a.0206.0206,0,0,0-.011.026v.0065A.0205.0205,0,0,0,3.3,2.2286h0l.1061-.0314a3.4548,3.4548,0,0,1-.1079.346.2854.2854,0,0,1-.1081.1676c-.0292.0206-.0184.0315.0164.0206a.3972.3972,0,0,0,.226-.185c.013-.0292.0239-.0638.04-.1081l.0746-.0335-.1687.5408v.011a.3364.3364,0,0,1-.2261-.2337.5287.5287,0,0,1-.0173-.2769.85.85,0,0,1,.1276-.31.4909.4909,0,0,1,.1754-.1535c.027,0,.0238-.026-.0119-.02a.5124.5124,0,0,0-.4434.5191.4727.4727,0,0,0,.0908.2824.5612.5612,0,0,0,.4532.2617.3591.3591,0,0,0,.4056-.3018.3332.3332,0,0,0-.2217-.3483.3185.3185,0,0,0-.0671-.013l.3656-.1644a.0238.0238,0,0,0,.0141-.0292H4.0025a.172.172,0,0,1-.1968-.0713.12.12,0,0,1-.0249-.0551h-.012m-.3432.9409V2.9739l.0563-.1818a.1526.1526,0,0,1,.2046.0683l0,0a.1486.1486,0,0,1,.0117.0323.36.36,0,0,1-.2736.09m.3245-.172c-.0076.0194-.0141.0216-.0292.04a.1827.1827,0,0,0-.2164-.1167l.0357-.1158a.2166.2166,0,0,0,.2434.05.2484.2484,0,0,1-.0346.1243m.0238-.1936a.1556.1556,0,0,1-.2146-.0492l0,0-.0016-.0026.0519-.1677a.1981.1981,0,0,1,.0932.0519.2827.2827,0,0,1,.0757.1677M3.6682,2.11a.2553.2553,0,0,0,.2034.0963L3.638,2.314l.0237-.09c.0119-.0249,0-.0345-.0219-.0335H3.6312l-.0173.0141-.0422.1362-.0747.0346c.0165-.0475.026-.0681.0736-.2325Z"/><path class="b" d="M6.2036,4.3022h.1279l.3035.8361H6.5109l-.0873-.25h-.328l-.0907.25H5.8888Zm.1878.4935-.1287-.3694-.1337.3694Z"/><path class="b" d="M7.4511,4.4218a.461.461,0,0,1,.0831.284.4968.4968,0,0,1-.0951.3113.4223.4223,0,0,1-.6215.0182.4814.4814,0,0,1-.0984-.3107.4939.4939,0,0,1,.0842-.29.3649.3649,0,0,1,.32-.1548.3827.3827,0,0,1,.3279.1423m-.1.5329a.4572.4572,0,0,0,.0668-.2469A.3526.3526,0,0,0,7.341,4.47.263.263,0,0,0,7.13,4.38a.2741.2741,0,0,0-.2117.0891.3755.3755,0,0,0-.082.2629.3843.3843,0,0,0,.07.2343.2642.2642,0,0,0,.228.0955.2357.2357,0,0,0,.2165-.1074"/><polygon class="b" points="7.616 4.302 7.748 4.302 7.989 4.704 8.229 4.302 8.362 4.302 8.045 4.801 8.045 5.138 7.932 5.138 7.932 4.801 7.616 4.302"/><path class="b" d="M8.6276,4.3022h.1279l.3034.8361h-.124l-.0873-.25H8.52l-.0907.25H8.3128Zm.1878.4935-.1287-.3694-.1338.3694Z"/><path class="b" d="M10.5271,4.3022h.1279l.3034.8361h-.124l-.0873-.25h-.328l-.0907.25h-.1161Zm.1879.4935-.1287-.3694-.1339.3694Z"/><path class="b" d="M9.2387,4.3023h.1622l.2405.7068L9.88,4.3023h.1612v.836H9.933V4.6449L9.9342,4.56q.001-.0593.0011-.1269l-.2387.7051H9.5844l-.241-.7051v.0256c0,.0205.0006.0517.0016.0936s.0018.0728.0018.0925v.4934H9.2387Z"/><path class="b" d="M12.09,4.3262a.2969.2969,0,0,1,.15.2293h-.1122a.2039.2039,0,0,0-.083-.1334.2814.2814,0,0,0-.1589-.0418.2466.2466,0,0,0-.1914.087.3787.3787,0,0,0-.0778.26.4214.4214,0,0,0,.0642.2427.235.235,0,0,0,.2091.0936.2641.2641,0,0,0,.1838-.0657.2784.2784,0,0,0,.0745-.2126h-.2618V4.691h.3673v.4473h-.073l-.0274-.1075a.4242.4242,0,0,1-.1.0876.37.37,0,0,1-.1865.0421.3594.3594,0,0,1-.2513-.0962.4609.4609,0,0,1-.1148-.3312.48.48,0,0,1,.1122-.3341.3544.3544,0,0,1,.276-.1184.4178.4178,0,0,1,.2008.0456"/><path class="b" d="M12.751,4.3022h.1279l.3035.8361h-.1242l-.0873-.25H12.643l-.0907.25h-.1162Zm.1879.4935L12.81,4.4263l-.1338.3694Z"/><polygon class="b" points="13.365 4.302 13.475 4.302 13.475 4.712 13.894 4.302 14.052 4.302 13.695 4.64 14.059 5.138 13.911 5.138 13.612 4.718 13.475 4.847 13.475 5.138 13.365 5.138 13.365 4.302"/><path class="b" d="M14.3451,4.3023V4.819a.3021.3021,0,0,0,.0345.1515.1809.1809,0,0,0,.172.091.2023.2023,0,0,0,.1973-.0985.31.31,0,0,0,.0282-.144V4.3023h.1145v.47a.541.541,0,0,1-.0418.2373.351.351,0,0,1-.5774,0,.5428.5428,0,0,1-.0416-.2373V4.3023Z"/><rect class="b" x="15.1844" y="4.3023" width="0.1144" height="0.8361"/><polygon class="b" points="15.563 4.302 15.696 4.302 16.113 4.978 16.113 4.302 16.222 4.302 16.222 5.138 16.094 5.138 15.671 4.464 15.671 5.138 15.563 5.138 15.563 4.302"/><path class="b" d="M16.9578,4.3023V4.819a.3021.3021,0,0,0,.0345.1515.1811.1811,0,0,0,.172.091.2025.2025,0,0,0,.1974-.0985.3115.3115,0,0,0,.0281-.144V4.3023h.1145v.47a.5411.5411,0,0,1-.0417.2373.3509.3509,0,0,1-.5773,0,.5408.5408,0,0,1-.0419-.2373V4.3023Z"/><polygon class="b" points="17.744 4.302 17.877 4.302 18.294 4.978 18.294 4.302 18.402 4.302 18.402 5.138 18.275 5.138 17.852 4.464 17.852 5.138 17.744 5.138 17.744 4.302"/><rect class="b" x="18.6642" y="4.3023" width="0.1144" height="0.8361"/><polygon class="b" points="19.109 4.302 19.349 5.014 19.587 4.302 19.714 4.302 19.409 5.138 19.289 5.138 18.984 4.302 19.109 4.302"/><polygon class="b" points="19.912 4.302 20.518 4.302 20.518 4.405 20.022 4.405 20.022 4.659 20.481 4.659 20.481 4.755 20.022 4.755 20.022 5.039 20.527 5.039 20.527 5.138 19.912 5.138 19.912 4.302"/><path class="b" d="M20.7723,4.3022h.38a.374.374,0,0,1,.1548.0279.1979.1979,0,0,1,.1158.1975.2211.2211,0,0,1-.0311.123.2239.2239,0,0,1-.0867.0768.1706.1706,0,0,1,.0736.0524.1871.1871,0,0,1,.0277.1053l.004.1121a.3469.3469,0,0,0,.0079.0711.07.07,0,0,0,.0364.0513v.0187h-.1389a.1055.1055,0,0,1-.009-.0278.51.51,0,0,1-.0057-.0661l-.0069-.1394a.1175.1175,0,0,0-.0591-.11.2377.2377,0,0,0-.099-.0154h-.25v.3585h-.1133Zm.3679.3966a.2088.2088,0,0,0,.1226-.0319.1314.1314,0,0,0,.0451-.1149.124.124,0,0,0-.0631-.1218.2013.2013,0,0,0-.09-.0171h-.269v.2857Z"/><path class="b" d="M21.7273,4.8686a.2343.2343,0,0,0,.0324.1155.2111.2111,0,0,0,.1914.0831.329.329,0,0,0,.1118-.0182.1283.1283,0,0,0,.0976-.1264.1108.1108,0,0,0-.0414-.0973.4087.4087,0,0,0-.1313-.05l-.11-.0256a.4848.4848,0,0,1-.1521-.0552.1763.1763,0,0,1-.0772-.1565.2441.2441,0,0,1,.0758-.185.299.299,0,0,1,.2148-.0723.366.366,0,0,1,.2174.0635.2315.2315,0,0,1,.09.2028H22.14a.2157.2157,0,0,0-.0349-.1029.1987.1987,0,0,0-.1687-.0655.189.189,0,0,0-.1379.0421.1343.1343,0,0,0-.0422.0979.0961.0961,0,0,0,.05.09.7048.7048,0,0,0,.1472.0455l.1137.0268a.3442.3442,0,0,1,.1268.0529.201.201,0,0,1,.0772.17.2141.2141,0,0,1-.0985.1987.4334.4334,0,0,1-.229.06.3365.3365,0,0,1-.2381-.08.2716.2716,0,0,1-.0843-.2145Z"/><rect class="b" x="22.5368" y="4.3023" width="0.1145" height="0.8361"/><polygon class="b" points="23.551 4.302 23.551 4.402 23.269 4.402 23.269 5.138 23.155 5.138 23.155 4.402 22.873 4.402 22.873 4.302 23.551 4.302"/><polygon class="b" points="23.657 4.302 23.789 4.302 24.03 4.704 24.27 4.302 24.403 4.302 24.086 4.801 24.086 5.138 23.973 5.138 23.973 4.801 23.657 4.302"/></svg>