<svg xmlns="http://www.w3.org/2000/svg" viewBox="0 0 321.2119 174.1138"><defs><style>.a{fill:#fff;}</style></defs><path class="a" d="M16.7393,250.3086c0-7.8545,5.6416-12.9824,12.0117-12.9824,5.83,0,9.4746,3.8593,9.4746,9.582,0,5.1289-3.0772,7.8281-5.6148,7.8281-1.5922,0-2.78-.73-2.915-2.2675h-.0542a5.4344,5.4344,0,0,1-3.6709,2.0781c-1.8892,0-3.4551-1.4033-3.4551-4.13,0-2.9424,2.1055-6.7481,5.6148-6.7481a2.71,2.71,0,0,1,2.456,1.4581h.0542l.2969-1.2149h1.1338l-1.08,5.6953c-.6479,2.6719-.0542,3.9141,1.7544,3.9141,1.9165,0,4.2109-2.375,4.2109-6.5059,0-5.1015-3.0771-8.4756-8.3139-8.4756-5.4253,0-10.6079,4.6162-10.6079,11.6885,0,5.83,3.6709,9.3389,8.9614,9.3389a9.1882,9.1882,0,0,0,4.9668-1.4307l.5395,1.0528a10.4241,10.4241,0,0,1-5.6142,1.5654C21.085,260.7549,16.7393,256.9766,16.7393,250.3086Zm12.6054,1.08.918-5.0742c-.6748-1.08-1.2686-1.4317-2.16-1.4317-2.6181,0-4.2378,2.97-4.2378,5.4531,0,2.1866,1.0528,2.9961,2.3487,2.9961C27.1587,253.332,28.1841,252.7383,29.3447,251.3887Z" transform="translate(-16.7393 -89.0981)"/><path class="a" d="M41.4712,252.7383c0-3.1856,2.834-4.6973,9.1772-5.4258.0542-2.1318-.5669-4.3457-3.2929-4.3457a7.7772,7.7772,0,0,0-4.5347,1.6465l-.7021-1.1328a9.9779,9.9779,0,0,1,5.4526-1.8907c3.4282,0,4.6431,2.4571,4.6431,5.6426v9.1231H50.8916L50.73,254.52h-.0537a8.29,8.29,0,0,1-5.021,2.1866C43.3335,256.7061,41.4712,255.4111,41.4712,252.7383Zm9.1772.4053v-4.67c-5.6684.6475-7.6118,1.97-7.6118,4.1836,0,1.9707,1.35,2.7266,2.9424,2.7266S48.9482,254.6279,50.6484,253.1436Z" transform="translate(-16.7393 -89.0981)"/><path class="a" d="M56.0513,249.1758c0-4.8047,3.0229-7.586,6.5053-7.586s6.5049,2.7813,6.5049,7.586c0,4.7773-3.0229,7.53-6.5049,7.53S56.0513,253.9531,56.0513,249.1758Zm11.3906,0c0-3.6719-2.0781-6.209-4.8853-6.209s-4.8588,2.5371-4.8588,6.209c0,3.67,2.0512,6.1806,4.8588,6.1806S67.4419,252.8457,67.4419,249.1758Z" transform="translate(-16.7393 -89.0981)"/><path class="a" d="M71.333,262.5371l.3511-1.3232a3.6885,3.6885,0,0,0,1.1606.2158c1.7276,0,2.8882-1.5654,3.59-3.6436l.3779-1.2148-5.8843-14.6025h1.7l3.3472,8.7988c.459,1.2422.999,2.7539,1.5117,4.0488h.1348c.4321-1.2949.8911-2.8066,1.2959-4.0488l2.9424-8.7988h1.5922l-5.6142,16.06c-.8638,2.4834-2.3218,4.8047-4.9668,4.8047A3.82,3.82,0,0,1,71.333,262.5371Z" transform="translate(-16.7393 -89.0981)"/><path class="a" d="M85.5073,252.7383c0-3.1856,2.834-4.6973,9.1773-5.4258.0542-2.1318-.5669-4.3457-3.293-4.3457a7.7777,7.7777,0,0,0-4.5347,1.6465l-.7021-1.1328a9.9782,9.9782,0,0,1,5.4526-1.8907c3.4282,0,4.6431,2.4571,4.6431,5.6426v9.1231H94.9277l-.1621-1.836h-.0537a8.29,8.29,0,0,1-5.021,2.1866C87.37,256.7061,85.5073,255.4111,85.5073,252.7383Zm9.1773.4053v-4.67c-5.6685.6475-7.6118,1.97-7.6118,4.1836,0,1.9707,1.35,2.7266,2.9423,2.7266S92.9844,254.6279,94.6846,253.1436Z" transform="translate(-16.7393 -89.0981)"/><path class="a" d="M101.2749,241.9688h1.2959l.189,2.1855h.0537c1.2959-1.43,2.9155-2.5645,4.5346-2.5645a3.7281,3.7281,0,0,1,3.9683,2.9161c1.62-1.7549,3.1851-2.9161,4.8584-2.9161,2.8882,0,4.3189,1.8633,4.3189,5.5606v9.2051h-1.5655v-8.9883c0-2.9961-.9985-4.3731-3.104-4.3731-1.2959,0-2.6186.8633-4.1572,2.5918v10.77h-1.5654v-8.9883c0-2.9961-.9717-4.3731-3.104-4.3731-1.2686,0-2.6455.8633-4.1573,2.5918v10.77h-1.5654Z" transform="translate(-16.7393 -89.0981)"/><path class="a" d="M124.6841,252.7383c0-3.1856,2.834-4.6973,9.1772-5.4258.0542-2.1318-.5669-4.3457-3.2929-4.3457a7.7772,7.7772,0,0,0-4.5347,1.6465l-.7022-1.1328a9.9785,9.9785,0,0,1,5.4527-1.8907c3.4282,0,4.643,2.4571,4.643,5.6426v9.1231h-1.3227l-.1621-1.836h-.0537a8.29,8.29,0,0,1-5.021,2.1866C126.5464,256.7061,124.6841,255.4111,124.6841,252.7383Zm9.1772.4053v-4.67c-5.6684.6475-7.6118,1.97-7.6118,4.1836,0,1.9707,1.35,2.7266,2.9424,2.7266S132.1611,254.6279,133.8613,253.1436Z" transform="translate(-16.7393 -89.0981)"/><path class="a" d="M139.2368,259.2705a4.3718,4.3718,0,0,1,2.16-3.4277v-.1348a2.5819,2.5819,0,0,1-1.2959-2.3213,3.5768,3.5768,0,0,1,1.5928-2.6728v-.1084a5.2077,5.2077,0,0,1-1.8355-3.9141,5.0257,5.0257,0,0,1,5.1558-5.1016,5.1037,5.1037,0,0,1,1.9165.379h4.9126v1.2949h-3.2393a4.59,4.59,0,0,1,1.4849,3.4551,4.9523,4.9523,0,0,1-5.0747,5.0742,4.8533,4.8533,0,0,1-2.3218-.5938,2.4766,2.4766,0,0,0-1.1333,1.9981c0,1.0254.6206,1.8086,2.6992,1.8086h3.023c3.2661,0,4.8046,1.0253,4.8046,3.32,0,2.51-2.6992,4.8857-6.91,4.8857C141.5854,263.2119,139.2368,261.7,139.2368,259.2705Zm11.2832-.7285c0-1.5391-1.1338-2.1055-3.2661-2.1055h-2.9424a10.1133,10.1133,0,0,1-1.8086-.2431,3.6115,3.6115,0,0,0-1.7812,2.8886c0,1.7539,1.7007,2.9424,4.6426,2.9424C148.4956,262.0244,150.52,260.27,150.52,258.542Zm-1.9433-11.8506a3.5852,3.5852,0,1,0-7.1534,0,3.5912,3.5912,0,1,0,7.1534,0Z" transform="translate(-16.7393 -89.0981)"/><path class="a" d="M154.1143,252.7383c0-3.1856,2.8339-4.6973,9.1772-5.4258.0542-2.1318-.5669-4.3457-3.293-4.3457a7.7771,7.7771,0,0,0-4.5346,1.6465l-.7022-1.1328a9.9785,9.9785,0,0,1,5.4527-1.8907c3.4282,0,4.643,2.4571,4.643,5.6426v9.1231h-1.3227l-.1621-1.836h-.0538a8.29,8.29,0,0,1-5.0209,2.1866C155.9766,256.7061,154.1143,255.4111,154.1143,252.7383Zm9.1772.4053v-4.67c-5.6685.6475-7.6118,1.97-7.6118,4.1836,0,1.9707,1.35,2.7266,2.9424,2.7266S161.5913,254.6279,163.2915,253.1436Z" transform="translate(-16.7393 -89.0981)"/><path class="a" d="M169.8818,234.8965h1.5655v15.5469h.0542l6.8833-8.4746h1.7812l-4.6968,5.6953,5.4527,8.6914h-1.7276l-4.6425-7.5586-3.1045,3.6719v3.8867h-1.5655Z" transform="translate(-16.7393 -89.0981)"/><path class="a" d="M183.7334,251.1729v-9.2041h1.5654v9.0156c0,2.9414.918,4.3183,3.1309,4.3183,1.6738,0,2.8613-.8632,4.4814-2.8066V241.9688h1.5655v14.3867h-1.3223l-.1357-2.375h-.0811c-1.4033,1.6191-2.8613,2.7256-4.8584,2.7256C185.083,256.7061,183.7334,254.8711,183.7334,251.1729Z" transform="translate(-16.7393 -89.0981)"/><path class="a" d="M199.3662,237.3525a1.2539,1.2539,0,0,1,1.3223-1.2959,1.27,1.27,0,1,1-1.3223,1.2959Zm.5127,4.6163h1.5654v14.3867h-1.5654Z" transform="translate(-16.7393 -89.0981)"/><path class="a" d="M206.8174,241.9688h1.2959l.1885,2.1855h.0546c1.4571-1.43,2.9415-2.5645,4.9122-2.5645,2.996,0,4.373,1.8633,4.373,5.5606v9.2051h-1.5654v-8.9883c0-2.9961-.9453-4.3731-3.1582-4.3731-1.6739,0-2.8614.8633-4.5352,2.5918v10.77h-1.5654Z" transform="translate(-16.7393 -89.0981)"/><path class="a" d="M222.6123,251.1729v-9.2041h1.5654v9.0156c0,2.9414.918,4.3183,3.1309,4.3183,1.6738,0,2.8613-.8632,4.4814-2.8066V241.9688h1.5655v14.3867h-1.3223l-.1357-2.375h-.0811c-1.4033,1.6191-2.8613,2.7256-4.8584,2.7256C223.9619,256.7061,222.6123,254.8711,222.6123,251.1729Z" transform="translate(-16.7393 -89.0981)"/><path class="a" d="M238.7578,241.9688h1.2959l.1885,2.1855h.0547c1.457-1.43,2.9414-2.5645,4.9121-2.5645,2.9961,0,4.373,1.8633,4.373,5.5606v9.2051h-1.5654v-8.9883c0-2.9961-.9453-4.3731-3.1582-4.3731-1.6738,0-2.8613.8633-4.5352,2.5918v10.77h-1.5654Z" transform="translate(-16.7393 -89.0981)"/><path class="a" d="M254.2559,237.3525a1.2538,1.2538,0,0,1,1.3222-1.2959,1.27,1.27,0,1,1-1.3222,1.2959Zm.5127,4.6163h1.5654v14.3867h-1.5654Z" transform="translate(-16.7393 -89.0981)"/><path class="a" d="M259.3584,241.9688H261.06l3.1035,8.8261c.459,1.4043.9453,2.8613,1.4307,4.1572h.1083c.459-1.2959.9717-2.7529,1.4307-4.1572l3.1309-8.8261h1.5927l-5.291,14.3867h-1.8623Z" transform="translate(-16.7393 -89.0981)"/><path class="a" d="M273.7227,249.1758c0-4.67,3.05-7.586,6.3164-7.586,3.4814,0,5.56,2.4844,5.56,6.6954a7.4937,7.4937,0,0,1-.081,1.1328H275.3154c.0811,3.51,2.1592,5.9658,5.2637,5.9658a6.4434,6.4434,0,0,0,3.833-1.2422l.5938,1.1611a8.055,8.055,0,0,1-4.5889,1.4034C276.7188,256.7061,273.7227,253.8994,273.7227,249.1758Zm10.4462-.999c0-3.4825-1.5927-5.2373-4.1035-5.2373-2.3476,0-4.4531,1.9433-4.75,5.2373Z" transform="translate(-16.7393 -89.0981)"/><path class="a" d="M289.4355,241.9688h1.2959l.1885,2.6718h.0547c.9717-1.8086,2.4024-3.0508,4.0752-3.0508a2.9074,2.9074,0,0,1,1.458.3243l-.3242,1.4043a3.0332,3.0332,0,0,0-1.3223-.2432c-1.2685,0-2.8076.9443-3.86,3.6162v9.6641h-1.5655Z" transform="translate(-16.7393 -89.0981)"/><path class="a" d="M297.373,254.7363l.837-1.1338a6.5905,6.5905,0,0,0,4.5351,1.8086c2.1865,0,3.293-1.2422,3.293-2.7265,0-1.7-1.8086-2.4834-3.4824-3.0772-2.1319-.7558-4.5078-1.6465-4.5078-4.13,0-2.1054,1.7011-3.8877,4.7246-3.8877a6.9532,6.9532,0,0,1,4.1836,1.5391l-.81,1.08a5.5192,5.5192,0,0,0-3.4287-1.2959c-2.1319,0-3.1035,1.1875-3.1035,2.4834,0,1.5918,1.6728,2.1865,3.3466,2.8066,2.2139.8379,4.6426,1.62,4.6426,4.4,0,2.2129-1.7539,4.1026-4.9394,4.1026A8.4354,8.4354,0,0,1,297.373,254.7363Z" transform="translate(-16.7393 -89.0981)"/><path class="a" d="M310.8193,237.3525a1.2539,1.2539,0,0,1,1.3223-1.2959,1.27,1.27,0,1,1-1.3223,1.2959Zm.5127,4.6163h1.5655v14.3867H311.332Z" transform="translate(-16.7393 -89.0981)"/><path class="a" d="M318.6211,252.252v-8.961h-2.24v-1.1875l2.2949-.1347.1885-4.1573h1.3232v4.1573h4.13v1.3222h-4.13V252.36c0,1.8085.4854,2.996,2.4023,2.996a5.0328,5.0328,0,0,0,1.754-.4043l.3779,1.2149a8.1339,8.1339,0,0,1-2.4024.5391C319.4854,256.7061,318.6211,254.9248,318.6211,252.252Z" transform="translate(-16.7393 -89.0981)"/><path class="a" d="M325.8311,262.5371l.3505-1.3232a3.6919,3.6919,0,0,0,1.1612.2158c1.7275,0,2.8877-1.5654,3.59-3.6436l.3779-1.2148-5.8847-14.6025h1.7012l3.3466,8.7988c.459,1.2422.9991,2.7539,1.5118,4.0488h.1347c.4317-1.2949.8906-2.8066,1.2959-4.0488l2.9424-8.7988h1.5928l-5.6153,16.06c-.8632,2.4834-2.3213,4.8047-4.9668,4.8047A3.82,3.82,0,0,1,325.8311,262.5371Z" transform="translate(-16.7393 -89.0981)"/><path class="a" d="M48.6523,89.5376H56.24v50.0391H48.6523Z" transform="translate(-16.7393 -89.0981)"/><path class="a" d="M64.7949,89.5376h6.1524l12.1289,33.4863h.1758q-.0879-1.171-.2344-2.6074-.1473-1.4348-.2637-3.2666-.1172-1.83-.2051-4.1455t-.0879-5.2148V89.5376h6.7969v50.0391H83.0469l-12.07-32.6075h-.2344q.0879,1.3184.2344,2.8565t.2636,3.6181q.1165,2.081.2051,4.8487t.0879,6.5771v14.7071H64.7949Z" transform="translate(-16.7393 -89.0981)"/><path class="a" d="M95.8789,129.44a21.4825,21.4825,0,0,1,.19-2.9736q.19-1.3623.5713-2.9443h5.8887v2.4316a22.7878,22.7878,0,0,0,.249,3.5742,8.3555,8.3555,0,0,0,.82,2.6221,3.9213,3.9213,0,0,0,1.5235,1.6113,4.6347,4.6347,0,0,0,2.3291.542,4.3848,4.3848,0,0,0,3.3105-1.1865,4.8151,4.8151,0,0,0,1.1426-3.4717,13.3985,13.3985,0,0,0-.1611-2.1533,8.9785,8.9785,0,0,0-.5567-1.9482,13.318,13.318,0,0,0-1.0693-2.0362,26.7186,26.7186,0,0,0-1.7285-2.3877l-7.91-9.4043a23.6,23.6,0,0,1-3.2519-5.4345,15.0276,15.0276,0,0,1-1.1426-5.8448,12.9793,12.9793,0,0,1,.7764-4.57,10.1935,10.1935,0,0,1,2.2412-3.5888,9.9972,9.9972,0,0,1,3.6181-2.3438,13.4117,13.4117,0,0,1,4.878-.835,14.2022,14.2022,0,0,1,5.5224.9375,9.4526,9.4526,0,0,1,3.53,2.461,8.9289,8.9289,0,0,1,1.86,3.4131,13.698,13.698,0,0,1,.542,3.7939,16.612,16.612,0,0,1-.249,2.9736q-.249,1.3623-.5713,3.003H112.373v-2.3731a13.148,13.148,0,0,0-1.1425-6.1084,3.9087,3.9087,0,0,0-3.7207-2.124,4.0536,4.0536,0,0,0-3.1934,1.1865,4.6093,4.6093,0,0,0-1.0547,3.1787,10.2571,10.2571,0,0,0,.1612,1.9043,7.4886,7.4886,0,0,0,.4687,1.5674,9.1008,9.1008,0,0,0,.7471,1.3916q.4394.6745.9961,1.4063l8.8183,10.664a30.53,30.53,0,0,1,3.6914,6.02,14.8086,14.8086,0,0,1,1.2891,6.1084,13.1172,13.1172,0,0,1-.835,4.8047,10.022,10.022,0,0,1-2.3877,3.6328,10.5872,10.5872,0,0,1-3.75,2.3,14.3083,14.3083,0,0,1-4.9511.8057,15.128,15.128,0,0,1-5.64-.9082,9.4359,9.4359,0,0,1-3.5742-2.4023,8.5581,8.5581,0,0,1-1.875-3.3985A14.1444,14.1444,0,0,1,95.8789,129.44Z" transform="translate(-16.7393 -89.0981)"/><path class="a" d="M130.4492,95.5142h-8.0566V89.5376h23.6719v5.9766h-8.0274v44.0625h-7.5879Z" transform="translate(-16.7393 -89.0981)"/><path class="a" d="M156.6992,89.5376H165.43l9.2578,50.0391h-7.6758l-1.3769-8.9649h-9.1407l-1.3183,8.9649h-7.7051Zm8.0567,35.3613L161.24,99.9673h-.3222l-3.545,24.9316Z" transform="translate(-16.7393 -89.0981)"/><path class="a" d="M189.6289,140.0454a13.0041,13.0041,0,0,1-2.0508-.19,8.5952,8.5952,0,0,1-2.417-.8057,10.2208,10.2208,0,0,1-2.4463-1.7431,10.7914,10.7914,0,0,1-2.1533-2.9883,18.8009,18.8009,0,0,1-1.5381-4.57,30.9551,30.9551,0,0,1-.5859-6.46V105.563a29.2884,29.2884,0,0,1,.6152-6.46,17.0579,17.0579,0,0,1,1.6407-4.5117,9.9825,9.9825,0,0,1,2.3584-2.915A10.6265,10.6265,0,0,1,185.82,90.021a11.55,11.55,0,0,1,2.8418-.7471,21.115,21.115,0,0,1,2.6074-.1758,13.93,13.93,0,0,1,5.1416.835,8.9157,8.9157,0,0,1,3.3985,2.2852,8.662,8.662,0,0,1,1.875,3.3838,14.4063,14.4063,0,0,1,.5713,4.1015,21.5388,21.5388,0,0,1-.19,2.9736q-.19,1.3623-.5127,3.003h-6.0644v-2.3731q0-8.2325-4.4238-8.2324a4.8782,4.8782,0,0,0-2.08.41,3.3872,3.3872,0,0,0-1.4649,1.3916,7.6109,7.6109,0,0,0-.8642,2.5927,24.17,24.17,0,0,0-.2783,4.0137v22.6758a22.6589,22.6589,0,0,0,.2783,3.8965,7.2658,7.2658,0,0,0,.85,2.49,3.2838,3.2838,0,0,0,1.4355,1.333,4.9327,4.9327,0,0,0,2.0655.3955,3.59,3.59,0,0,0,2.1679-.6592,4.9849,4.9849,0,0,0,1.4942-1.8017,9.6,9.6,0,0,0,.8642-2.6953,19.1109,19.1109,0,0,0,.2783-3.3692v-6.5332h-3.8964v-4.98h11.2793v25.3418h-5.0391l-.82-4.7461a10.215,10.215,0,0,1-3.2959,3.999A7.8823,7.8823,0,0,1,189.6289,140.0454Z" transform="translate(-16.7393 -89.0981)"/><path class="a" d="M210.1953,89.5376h8.2324q1.4063,0,3.0909.1172a17.6116,17.6116,0,0,1,3.3691.5713,13.4864,13.4864,0,0,1,3.2519,1.3623,9.5526,9.5526,0,0,1,2.7833,2.49,12.4526,12.4526,0,0,1,1.9482,3.97,19.9144,19.9144,0,0,1,.7324,5.7862v1.26a22.5229,22.5229,0,0,1-1.6406,9.3018,10.3077,10.3077,0,0,1-4.834,5.1709l8.0273,20.01h-8.0273l-6.65-18.7207h-2.8418v18.7207h-7.4414Zm8.584,25.84a11.19,11.19,0,0,0,3.3691-.4394,4.6084,4.6084,0,0,0,2.2266-1.48,6.5262,6.5262,0,0,0,1.2305-2.7539,19.8982,19.8982,0,0,0,.3808-4.2334v-3.9551a13.9111,13.9111,0,0,0-.3515-3.34,5.2182,5.2182,0,0,0-1.1866-2.3145,4.9961,4.9961,0,0,0-2.2119-1.3476,11.5413,11.5413,0,0,0-3.457-.4395h-1.1426v20.3027Z" transform="translate(-16.7393 -89.0981)"/><path class="a" d="M246.4062,89.5376h8.73l9.2578,50.0391h-7.6757l-1.377-8.9649h-9.1406l-1.3184,8.9649h-7.7051Zm8.0567,35.3613-3.5156-24.9316h-.3223L247.08,124.8989Z" transform="translate(-16.7393 -89.0981)"/><path class="a" d="M269.2285,89.5376h9.9024l4.8046,19.3652q.7619,3.2235,1.2012,6.1377.44,2.9158.85,5.4932h.2344q.41-2.5774.85-5.4932t1.2012-6.1377l4.9512-19.3652H302.92v50.0391h-7.09V123.0239q0-3.8077.0732-7.3242t.19-6.46q.1172-2.9442.2636-5.2t.2637-3.5743h-.5566l-7.5586,32.666h-4.8047l-7.6172-32.666h-.5567q.1173,1.3183.2637,3.5743t.2637,5.2q.1171,2.9444.19,6.46t.0733,7.3242v16.5528h-7.09Z" transform="translate(-16.7393 -89.0981)"/></svg>