<svg xmlns="http://www.w3.org/2000/svg" width="46.1213" height="37.4818" viewBox="0 0 4.6121 3.7482"><defs><style>.a{fill:#1da1f2;}</style></defs><path class="a" d="M4.6121.4437a1.8933,1.8933,0,0,1-.5434.149.9471.9471,0,0,0,.416-.5233,1.8906,1.8906,0,0,1-.601.2293.9471.9471,0,0,0-1.6122.8629A2.6858,2.6858,0,0,1,.3211.1729.9476.9476,0,0,0,.614,1.4365a.9455.9455,0,0,1-.4288-.1181V1.33a.9463.9463,0,0,0,.7593.9278.9252.9252,0,0,1-.25.0333.9381.9381,0,0,1-.1779-.0168.9462.9462,0,0,0,.8838.6568,1.8974,1.8974,0,0,1-1.1751.4052A1.89,1.89,0,0,1,0,3.3232a2.6808,2.6808,0,0,0,1.4505.425A2.6735,2.6735,0,0,0,4.1426,1.056c0-.0411-.0008-.0821-.0025-.1224a1.9168,1.9168,0,0,0,.472-.49"/></svg>